<mxfile host="app.diagrams.net" modified="2021-08-21T20:23:52.144Z" agent="5.0 (Windows NT 10.0; Win64; x64) AppleWebKit/537.36 (KHTML, like Gecko) Chrome/92.0.4515.159 Safari/537.36" etag="crMKXxGDtEOT5NvGCX5B" version="14.9.8" type="github">
  <diagram name="Page-1" id="c4acf3e9-155e-7222-9cf6-157b1a14988f">
    <mxGraphModel dx="1447" dy="1903" grid="1" gridSize="10" guides="1" tooltips="1" connect="1" arrows="1" fold="1" page="1" pageScale="1" pageWidth="850" pageHeight="1100" background="none" math="0" shadow="0">
      <root>
        <mxCell id="0" />
        <mxCell id="1" parent="0" />
        <mxCell id="taq9SUVgvSad8din_OLi-8" style="edgeStyle=orthogonalEdgeStyle;rounded=0;orthogonalLoop=1;jettySize=auto;html=1;exitX=0;exitY=0.5;exitDx=0;exitDy=0;" parent="1" source="beOxGJcbKYumJ8Pze_IX-9" target="taq9SUVgvSad8din_OLi-6" edge="1">
          <mxGeometry relative="1" as="geometry" />
        </mxCell>
        <mxCell id="taq9SUVgvSad8din_OLi-14" style="edgeStyle=orthogonalEdgeStyle;rounded=0;orthogonalLoop=1;jettySize=auto;html=1;exitX=1;exitY=0.5;exitDx=0;exitDy=0;" parent="1" source="beOxGJcbKYumJ8Pze_IX-9" target="beOxGJcbKYumJ8Pze_IX-16" edge="1">
          <mxGeometry relative="1" as="geometry" />
        </mxCell>
        <mxCell id="eRkG4sJ42gJfi2PjxA3R-2" style="edgeStyle=orthogonalEdgeStyle;rounded=0;orthogonalLoop=1;jettySize=auto;html=1;exitX=1;exitY=0.25;exitDx=0;exitDy=0;" edge="1" parent="1" source="beOxGJcbKYumJ8Pze_IX-9" target="eRkG4sJ42gJfi2PjxA3R-3">
          <mxGeometry relative="1" as="geometry">
            <mxPoint x="1052" y="-1050" as="targetPoint" />
          </mxGeometry>
        </mxCell>
        <mxCell id="beOxGJcbKYumJ8Pze_IX-9" value="USUARIOS&lt;br&gt;-Nombre Apellido&lt;br&gt;-Email&lt;br&gt;-Teléfono&lt;br&gt;-Localidad&lt;br&gt;" style="rounded=1;whiteSpace=wrap;html=1;" parent="1" vertex="1">
          <mxGeometry x="470" y="-1070" width="140" height="80" as="geometry" />
        </mxCell>
        <mxCell id="taq9SUVgvSad8din_OLi-15" style="edgeStyle=orthogonalEdgeStyle;rounded=0;orthogonalLoop=1;jettySize=auto;html=1;exitX=1;exitY=0.5;exitDx=0;exitDy=0;entryX=-0.001;entryY=0.567;entryDx=0;entryDy=0;entryPerimeter=0;" parent="1" source="beOxGJcbKYumJ8Pze_IX-10" target="beOxGJcbKYumJ8Pze_IX-17" edge="1">
          <mxGeometry relative="1" as="geometry" />
        </mxCell>
        <mxCell id="beOxGJcbKYumJ8Pze_IX-10" value="" style="rounded=1;whiteSpace=wrap;html=1;" parent="1" vertex="1">
          <mxGeometry x="86.98" y="-633" width="180" height="270" as="geometry" />
        </mxCell>
        <mxCell id="beOxGJcbKYumJ8Pze_IX-11" value="" style="endArrow=none;html=1;exitX=-0.011;exitY=0.129;exitDx=0;exitDy=0;exitPerimeter=0;" parent="1" source="beOxGJcbKYumJ8Pze_IX-10" edge="1">
          <mxGeometry width="50" height="50" relative="1" as="geometry">
            <mxPoint x="111.98" y="-583" as="sourcePoint" />
            <mxPoint x="272.98" y="-599" as="targetPoint" />
            <Array as="points">
              <mxPoint x="220" y="-599" />
            </Array>
          </mxGeometry>
        </mxCell>
        <mxCell id="beOxGJcbKYumJ8Pze_IX-12" value="Informacion de articulos" style="text;html=1;strokeColor=none;fillColor=none;align=center;verticalAlign=middle;whiteSpace=wrap;rounded=0;" parent="1" vertex="1">
          <mxGeometry x="106.98" y="-623" width="140" height="30" as="geometry" />
        </mxCell>
        <mxCell id="beOxGJcbKYumJ8Pze_IX-13" value="○ Nombre&lt;br/&gt;&lt;br&gt;○ Descripción&lt;br/&gt;&lt;br&gt;○ Categoría a la que pertenece&lt;br&gt;&amp;nbsp;○ Precio&lt;br/&gt;&lt;br&gt;○ Moneda (Pesos o Dólares)&lt;br/&gt;○ Cantidad de comprados&lt;br&gt;&amp;nbsp;○ Imágenes&lt;br&gt;&amp;nbsp;○ Productos relacionados&lt;br/&gt;&lt;br&gt;○ Puntuación y comentarios&lt;br/&gt;" style="text;html=1;strokeColor=none;fillColor=none;align=center;verticalAlign=middle;whiteSpace=wrap;rounded=0;" parent="1" vertex="1">
          <mxGeometry x="101.98" y="-553" width="150" height="140" as="geometry" />
        </mxCell>
        <mxCell id="eRkG4sJ42gJfi2PjxA3R-5" style="edgeStyle=orthogonalEdgeStyle;rounded=0;orthogonalLoop=1;jettySize=auto;html=1;exitX=0.25;exitY=1;exitDx=0;exitDy=0;entryX=0.75;entryY=0;entryDx=0;entryDy=0;" edge="1" parent="1" source="beOxGJcbKYumJ8Pze_IX-14" target="beOxGJcbKYumJ8Pze_IX-10">
          <mxGeometry relative="1" as="geometry" />
        </mxCell>
        <mxCell id="beOxGJcbKYumJ8Pze_IX-14" value="Listado de articulos" style="swimlane;startSize=30;" parent="1" vertex="1">
          <mxGeometry x="172" y="-894" width="200" height="200" as="geometry" />
        </mxCell>
        <mxCell id="beOxGJcbKYumJ8Pze_IX-15" value="&amp;nbsp;-Precio (creciente)&lt;br&gt;- Relevancia* (decreciente) {se medirá a partir de la cantidad vendidos}&lt;br&gt;-Rango de precio&lt;br&gt;-Info completa de un articulo" style="text;html=1;strokeColor=none;fillColor=none;align=center;verticalAlign=middle;whiteSpace=wrap;rounded=0;" parent="1" vertex="1">
          <mxGeometry x="163.98000000000002" y="-844" width="180" height="130" as="geometry" />
        </mxCell>
        <mxCell id="beOxGJcbKYumJ8Pze_IX-16" value="Procesos de Compra" style="swimlane;" parent="1" vertex="1">
          <mxGeometry x="591.98" y="-966" width="290" height="300" as="geometry" />
        </mxCell>
        <mxCell id="beOxGJcbKYumJ8Pze_IX-17" value="Carrito de Compras:&amp;nbsp;○ Los artículos seleccionados para comprar.&lt;br/&gt;○ El costo unitario de un artículo.&lt;br/&gt;○ La cantidad a comprar de cada artículo.&lt;br/&gt;○ El costo total del costo unitario por la cantidad respectiva.&lt;br/&gt;○ El subtotal que será la sumatoria de los costos total por artículo.&lt;br/&gt;○ Costo de envío.&lt;br/&gt;○ El costo total.&lt;br/&gt;○ Deberá seleccionar forma de pago.&lt;br/&gt;○ Al seleccionar la finalización del proceso de compras, se simulará que la&lt;br/&gt;orden ha sido generada con éxito." style="text;html=1;strokeColor=none;fillColor=none;align=center;verticalAlign=middle;whiteSpace=wrap;rounded=0;" parent="beOxGJcbKYumJ8Pze_IX-16" vertex="1">
          <mxGeometry x="5" y="9" width="280" height="310" as="geometry" />
        </mxCell>
        <mxCell id="beOxGJcbKYumJ8Pze_IX-18" value="Método de envío" style="swimlane;" parent="1" vertex="1">
          <mxGeometry x="603.98" y="-582" width="200" height="200" as="geometry" />
        </mxCell>
        <mxCell id="beOxGJcbKYumJ8Pze_IX-19" value="● Dirección: calle, número, esquina.&lt;br/&gt;● País.&lt;br/&gt;&lt;br&gt;● Tipo de envío:&lt;br/&gt;○ Premium (2-5 días) - Costo del 15% sobre el subtotal.&lt;br/&gt;○ Express (5-8 días) - Costo del 7% sobre el subtotal.&lt;br/&gt;○ Standard (12 a 15 días) - Costo del 5% sobre el subtotal.t" style="text;html=1;strokeColor=none;fillColor=none;align=center;verticalAlign=middle;whiteSpace=wrap;rounded=0;" parent="beOxGJcbKYumJ8Pze_IX-18" vertex="1">
          <mxGeometry y="30" width="200" height="150" as="geometry" />
        </mxCell>
        <mxCell id="taq9SUVgvSad8din_OLi-17" style="edgeStyle=orthogonalEdgeStyle;rounded=0;orthogonalLoop=1;jettySize=auto;html=1;exitX=0.5;exitY=1;exitDx=0;exitDy=0;entryX=1;entryY=0.5;entryDx=0;entryDy=0;" parent="1" source="beOxGJcbKYumJ8Pze_IX-20" target="beOxGJcbKYumJ8Pze_IX-19" edge="1">
          <mxGeometry relative="1" as="geometry" />
        </mxCell>
        <mxCell id="beOxGJcbKYumJ8Pze_IX-20" value="Forma de Pago" style="swimlane;" parent="1" vertex="1">
          <mxGeometry x="1018.98" y="-728" width="170" height="140" as="geometry" />
        </mxCell>
        <mxCell id="beOxGJcbKYumJ8Pze_IX-21" value="Tarjeta de crédito&lt;br&gt;O&lt;br&gt;Transferencia Bancaria" style="text;html=1;align=center;verticalAlign=middle;resizable=0;points=[];autosize=1;strokeColor=none;" parent="beOxGJcbKYumJ8Pze_IX-20" vertex="1">
          <mxGeometry x="15" y="50" width="140" height="50" as="geometry" />
        </mxCell>
        <mxCell id="taq9SUVgvSad8din_OLi-1" value="" style="endArrow=none;html=1;exitX=0;exitY=0.25;exitDx=0;exitDy=0;entryX=1;entryY=0.25;entryDx=0;entryDy=0;" parent="1" source="beOxGJcbKYumJ8Pze_IX-9" target="beOxGJcbKYumJ8Pze_IX-9" edge="1">
          <mxGeometry width="50" height="50" relative="1" as="geometry">
            <mxPoint x="-19" y="-770" as="sourcePoint" />
            <mxPoint x="31" y="-820" as="targetPoint" />
          </mxGeometry>
        </mxCell>
        <mxCell id="taq9SUVgvSad8din_OLi-12" style="edgeStyle=orthogonalEdgeStyle;rounded=0;orthogonalLoop=1;jettySize=auto;html=1;exitX=0.5;exitY=1;exitDx=0;exitDy=0;" parent="1" source="taq9SUVgvSad8din_OLi-6" edge="1">
          <mxGeometry relative="1" as="geometry">
            <mxPoint x="274" y="-900" as="targetPoint" />
          </mxGeometry>
        </mxCell>
        <mxCell id="taq9SUVgvSad8din_OLi-6" value="PRODUCTOS&lt;br&gt;&lt;br&gt;&lt;br&gt;&lt;br&gt;-Articulos-" style="rounded=1;whiteSpace=wrap;html=1;" parent="1" vertex="1">
          <mxGeometry x="203.98000000000002" y="-1030" width="140" height="80" as="geometry" />
        </mxCell>
        <mxCell id="taq9SUVgvSad8din_OLi-7" value="" style="endArrow=none;html=1;exitX=0;exitY=0.25;exitDx=0;exitDy=0;entryX=1;entryY=0.25;entryDx=0;entryDy=0;" parent="1" source="taq9SUVgvSad8din_OLi-6" target="taq9SUVgvSad8din_OLi-6" edge="1">
          <mxGeometry width="50" height="50" relative="1" as="geometry">
            <mxPoint x="381" y="-770" as="sourcePoint" />
            <mxPoint x="431" y="-820" as="targetPoint" />
          </mxGeometry>
        </mxCell>
        <mxCell id="taq9SUVgvSad8din_OLi-9" value="Accede a:" style="text;html=1;strokeColor=none;fillColor=none;align=center;verticalAlign=middle;whiteSpace=wrap;rounded=0;" parent="1" vertex="1">
          <mxGeometry x="385" y="-1060" width="40" height="20" as="geometry" />
        </mxCell>
        <mxCell id="taq9SUVgvSad8din_OLi-16" style="edgeStyle=orthogonalEdgeStyle;rounded=0;orthogonalLoop=1;jettySize=auto;html=1;exitX=1;exitY=0.5;exitDx=0;exitDy=0;entryX=0.5;entryY=0;entryDx=0;entryDy=0;" parent="1" source="beOxGJcbKYumJ8Pze_IX-17" target="beOxGJcbKYumJ8Pze_IX-20" edge="1">
          <mxGeometry relative="1" as="geometry" />
        </mxCell>
        <mxCell id="eRkG4sJ42gJfi2PjxA3R-3" value="" style="rounded=1;whiteSpace=wrap;html=1;" vertex="1" parent="1">
          <mxGeometry x="992" y="-1080" width="120" height="60" as="geometry" />
        </mxCell>
        <mxCell id="eRkG4sJ42gJfi2PjxA3R-4" value="Compradores&lt;br&gt;Vendedores" style="text;html=1;strokeColor=none;fillColor=none;align=center;verticalAlign=middle;whiteSpace=wrap;rounded=0;" vertex="1" parent="1">
          <mxGeometry x="1032" y="-1060" width="40" height="20" as="geometry" />
        </mxCell>
      </root>
    </mxGraphModel>
  </diagram>
</mxfile>
